<svg xmlns="http://www.w3.org/2000/svg" xmlns:xlink="http://www.w3.org/1999/xlink" width="500" zoomAndPan="magnify" viewBox="0 0 375 374.999991" height="500" preserveAspectRatio="xMidYMid meet" version="1.0"><defs><g/></defs><g fill="#353535" fill-opacity="1"><g transform="translate(84.188963, 206.595607)"><g><path d="M 53.421875 0 L 44.3125 0 L 44.3125 -28.265625 C 44.3125 -30.328125 43.910156 -32.203125 43.109375 -33.890625 C 42.316406 -35.585938 41.195312 -37.039062 39.75 -38.25 C 38.300781 -39.457031 36.59375 -40.390625 34.625 -41.046875 C 32.65625 -41.703125 30.5 -42.03125 28.15625 -42.03125 C 25.738281 -42.03125 23.53125 -41.582031 21.53125 -40.6875 C 19.53125 -39.789062 17.804688 -38.5625 16.359375 -37 C 14.910156 -35.445312 13.785156 -33.617188 12.984375 -31.515625 C 12.191406 -29.410156 11.796875 -27.117188 11.796875 -24.640625 C 11.796875 -22.296875 12.191406 -20.101562 12.984375 -18.0625 C 13.785156 -16.03125 14.910156 -14.238281 16.359375 -12.6875 C 17.804688 -11.132812 19.53125 -9.90625 21.53125 -9 C 23.53125 -8.101562 25.703125 -7.65625 28.046875 -7.65625 C 30.671875 -7.65625 33.019531 -8.289062 35.09375 -9.5625 C 37.164062 -10.84375 38.992188 -12.488281 40.578125 -14.5 L 40.578125 -3.734375 C 38.648438 -2.210938 36.664062 -1.035156 34.625 -0.203125 C 32.59375 0.617188 30.09375 1.03125 27.125 1.03125 C 23.675781 1.03125 20.445312 0.359375 17.4375 -0.984375 C 14.4375 -2.328125 11.847656 -4.171875 9.671875 -6.515625 C 7.503906 -8.867188 5.796875 -11.664062 4.546875 -14.90625 C 3.304688 -18.144531 2.6875 -21.628906 2.6875 -25.359375 C 2.6875 -29.085938 3.304688 -32.519531 4.546875 -35.65625 C 5.796875 -38.800781 7.554688 -41.476562 9.828125 -43.6875 C 12.109375 -45.894531 14.816406 -47.617188 17.953125 -48.859375 C 21.097656 -50.097656 24.566406 -50.71875 28.359375 -50.71875 C 32.160156 -50.71875 35.613281 -50.148438 38.71875 -49.015625 C 41.820312 -47.878906 44.457031 -46.289062 46.625 -44.25 C 48.800781 -42.21875 50.476562 -39.785156 51.65625 -36.953125 C 52.832031 -34.128906 53.421875 -30.988281 53.421875 -27.53125 Z M 53.421875 0 "/></g></g></g><g fill="#353535" fill-opacity="1"><g transform="translate(129.828982, 206.595607)"><g><path d="M 16.046875 -72.46875 L 16.046875 0 L 6.9375 0 L 6.9375 -72.46875 Z M 16.046875 -72.46875 "/></g></g></g><g fill="#353535" fill-opacity="1"><g transform="translate(140.901013, 206.595607)"><g><path d="M 19.359375 -16.359375 L 15.625 -23.609375 L 40.171875 -37.265625 C 38.441406 -38.992188 36.800781 -40.21875 35.25 -40.9375 C 33.695312 -41.664062 31.570312 -42.03125 28.875 -42.03125 C 26.46875 -42.03125 24.28125 -41.613281 22.3125 -40.78125 C 20.34375 -39.957031 18.632812 -38.785156 17.1875 -37.265625 C 15.738281 -35.742188 14.613281 -33.929688 13.8125 -31.828125 C 13.019531 -29.722656 12.625 -27.394531 12.625 -24.84375 C 12.625 -22.289062 13.019531 -19.960938 13.8125 -17.859375 C 14.613281 -15.753906 15.738281 -13.941406 17.1875 -12.421875 C 18.632812 -10.898438 20.34375 -9.722656 22.3125 -8.890625 C 24.28125 -8.066406 26.46875 -7.65625 28.875 -7.65625 C 33.644531 -7.65625 37.320312 -8.878906 39.90625 -11.328125 C 42.488281 -13.785156 44.367188 -17.738281 45.546875 -23.1875 L 54.765625 -22.046875 C 54.421875 -18.597656 53.539062 -15.441406 52.125 -12.578125 C 50.707031 -9.710938 48.84375 -7.28125 46.53125 -5.28125 C 44.21875 -3.28125 41.5625 -1.726562 38.5625 -0.625 C 35.5625 0.476562 32.332031 1.03125 28.875 1.03125 C 25.363281 1.03125 22.035156 0.375 18.890625 -0.9375 C 15.753906 -2.25 13.03125 -4.039062 10.71875 -6.3125 C 8.40625 -8.59375 6.554688 -11.316406 5.171875 -14.484375 C 3.796875 -17.660156 3.109375 -21.113281 3.109375 -24.84375 C 3.109375 -28.632812 3.8125 -32.117188 5.21875 -35.296875 C 6.632812 -38.472656 8.515625 -41.195312 10.859375 -43.46875 C 13.210938 -45.75 15.941406 -47.523438 19.046875 -48.796875 C 22.148438 -50.078125 25.425781 -50.71875 28.875 -50.71875 C 34.75 -50.71875 39.632812 -49.300781 43.53125 -46.46875 C 47.425781 -43.644531 50.546875 -39.816406 52.890625 -34.984375 Z M 19.359375 -16.359375 "/></g></g></g><g fill="#009245" fill-opacity="1"><g transform="translate(186.548335, 206.595607)"><g><path d="M 54.859375 -23.609375 C 54.859375 -20.148438 54.203125 -16.921875 52.890625 -13.921875 C 51.585938 -10.921875 49.847656 -8.316406 47.671875 -6.109375 C 45.492188 -3.898438 42.957031 -2.15625 40.0625 -0.875 C 37.164062 0.394531 34.128906 1.03125 30.953125 1.03125 C 28.460938 1.03125 26.046875 0.753906 23.703125 0.203125 C 21.359375 -0.347656 19.082031 -1.242188 16.875 -2.484375 L 16.875 -12.015625 C 18.53125 -10.835938 20.515625 -9.816406 22.828125 -8.953125 C 25.140625 -8.085938 27.332031 -7.65625 29.40625 -7.65625 C 34.375 -7.65625 38.335938 -9.207031 41.296875 -12.3125 C 44.265625 -15.425781 45.75 -19.566406 45.75 -24.734375 C 45.75 -27.222656 45.351562 -29.519531 44.5625 -31.625 C 43.769531 -33.726562 42.648438 -35.554688 41.203125 -37.109375 C 39.753906 -38.660156 38.007812 -39.867188 35.96875 -40.734375 C 33.9375 -41.597656 31.675781 -42.03125 29.1875 -42.03125 C 26.769531 -42.03125 24.578125 -41.5625 22.609375 -40.625 C 20.648438 -39.695312 18.976562 -38.367188 17.59375 -36.640625 C 16.21875 -34.921875 15.148438 -32.832031 14.390625 -30.375 C 13.628906 -27.925781 13.25 -25.21875 13.25 -22.25 L 13.25 22.359375 L 4.140625 22.359375 L 4.140625 -23.8125 C 4.140625 -27.601562 4.742188 -31.140625 5.953125 -34.421875 C 7.160156 -37.703125 8.847656 -40.546875 11.015625 -42.953125 C 13.191406 -45.367188 15.816406 -47.265625 18.890625 -48.640625 C 21.960938 -50.023438 25.394531 -50.71875 29.1875 -50.71875 C 33.125 -50.71875 36.675781 -50.007812 39.84375 -48.59375 C 43.019531 -47.1875 45.726562 -45.253906 47.96875 -42.796875 C 50.21875 -40.347656 51.925781 -37.46875 53.09375 -34.15625 C 54.269531 -30.84375 54.859375 -27.328125 54.859375 -23.609375 Z M 54.859375 -23.609375 "/></g></g></g><g fill="#fbb03b" fill-opacity="1"><g transform="translate(232.198861, 206.595607)"><g><path d="M 13.765625 -72.46875 L 13.765625 -45.34375 C 15.148438 -46.925781 16.960938 -48.21875 19.203125 -49.21875 C 21.441406 -50.21875 23.910156 -50.71875 26.609375 -50.71875 C 33.640625 -50.71875 38.8125 -48.890625 42.125 -45.234375 C 45.4375 -41.578125 47.09375 -36.265625 47.09375 -29.296875 L 47.09375 0 L 37.984375 0 L 37.984375 -29.296875 C 37.984375 -33.234375 37.015625 -36.335938 35.078125 -38.609375 C 33.148438 -40.890625 30.082031 -42.03125 25.875 -42.03125 C 22.425781 -42.03125 19.53125 -40.753906 17.1875 -38.203125 C 14.90625 -35.578125 13.765625 -32.570312 13.765625 -29.1875 L 13.765625 0 L 4.65625 0 L 4.65625 -72.46875 Z M 13.765625 -72.46875 "/></g></g></g></svg>