<svg xmlns="http://www.w3.org/2000/svg" xmlns:xlink="http://www.w3.org/1999/xlink" width="150" zoomAndPan="magnify" viewBox="0 0 112.5 74.999997" height="100" preserveAspectRatio="xMidYMid meet" version="1.0"><path fill="#353535" d="M 31.558594 52.023438 L 26.679688 52.023438 L 26.679688 36.882812 C 26.679688 35.777344 26.464844 34.773438 26.035156 33.871094 C 25.613281 32.960938 25.011719 32.183594 24.238281 31.535156 C 23.460938 30.886719 22.546875 30.386719 21.492188 30.035156 C 20.4375 29.683594 19.28125 29.507812 18.027344 29.507812 C 16.730469 29.507812 15.550781 29.75 14.480469 30.230469 C 13.40625 30.710938 12.484375 31.367188 11.707031 32.203125 C 10.933594 33.035156 10.328125 34.015625 9.902344 35.140625 C 9.476562 36.269531 9.265625 37.496094 9.265625 38.824219 C 9.265625 40.078125 9.476562 41.253906 9.902344 42.347656 C 10.328125 43.433594 10.933594 44.394531 11.707031 45.226562 C 12.484375 46.058594 13.40625 46.714844 14.480469 47.199219 C 15.550781 47.683594 16.714844 47.921875 17.96875 47.921875 C 19.375 47.921875 20.632812 47.582031 21.742188 46.898438 C 22.851562 46.214844 23.832031 45.332031 24.679688 44.253906 L 24.679688 50.023438 C 23.648438 50.835938 22.582031 51.46875 21.492188 51.914062 C 20.402344 52.351562 19.066406 52.574219 17.476562 52.574219 C 15.628906 52.574219 13.898438 52.214844 12.285156 51.496094 C 10.679688 50.773438 9.292969 49.789062 8.125 48.53125 C 6.964844 47.273438 6.050781 45.773438 5.382812 44.039062 C 4.714844 42.304688 4.386719 40.4375 4.386719 38.4375 C 4.386719 36.441406 4.714844 34.605469 5.382812 32.921875 C 6.050781 31.238281 6.992188 29.804688 8.210938 28.621094 C 9.433594 27.441406 10.882812 26.515625 12.5625 25.851562 C 14.246094 25.1875 16.105469 24.855469 18.136719 24.855469 C 20.171875 24.855469 22.019531 25.160156 23.683594 25.769531 C 25.347656 26.375 26.757812 27.226562 27.917969 28.320312 C 29.085938 29.410156 29.980469 30.710938 30.613281 32.230469 C 31.242188 33.742188 31.558594 35.421875 31.558594 37.277344 Z M 31.558594 52.023438 " fill-opacity="1" fill-rule="nonzero"/><path fill="#353535" d="M 31.109375 13.207031 L 35.988281 13.207031 L 35.988281 52.023438 L 31.109375 52.023438 Z M 31.109375 13.207031 " fill-opacity="1" fill-rule="nonzero"/><path fill="#353535" d="M 43.691406 43.257812 L 41.691406 39.375 L 54.839844 32.0625 C 53.910156 31.136719 53.035156 30.480469 52.203125 30.09375 C 51.371094 29.707031 50.230469 29.507812 48.789062 29.507812 C 47.5 29.507812 46.328125 29.734375 45.273438 30.179688 C 44.21875 30.621094 43.300781 31.246094 42.527344 32.0625 C 41.75 32.878906 41.148438 33.847656 40.71875 34.972656 C 40.296875 36.101562 40.085938 37.347656 40.085938 38.714844 C 40.085938 40.082031 40.296875 41.332031 40.71875 42.457031 C 41.148438 43.582031 41.75 44.554688 42.527344 45.367188 C 43.300781 46.183594 44.21875 46.8125 45.273438 47.257812 C 46.328125 47.699219 47.5 47.921875 48.789062 47.921875 C 51.34375 47.921875 53.3125 47.265625 54.695312 45.953125 C 56.078125 44.636719 57.085938 42.519531 57.71875 39.601562 L 62.65625 40.214844 C 62.472656 42.058594 62 43.75 61.242188 45.285156 C 60.480469 46.820312 59.484375 48.121094 58.246094 49.191406 C 57.007812 50.265625 55.582031 51.097656 53.976562 51.6875 C 52.371094 52.277344 50.640625 52.574219 48.789062 52.574219 C 46.90625 52.574219 45.125 52.222656 43.441406 51.519531 C 41.761719 50.816406 40.300781 49.859375 39.0625 48.640625 C 37.824219 47.417969 36.832031 45.960938 36.09375 44.261719 C 35.355469 42.5625 34.988281 40.714844 34.988281 38.714844 C 34.988281 36.683594 35.363281 34.820312 36.117188 33.117188 C 36.875 31.414062 37.882812 29.957031 39.136719 28.738281 C 40.398438 27.515625 41.859375 26.566406 43.523438 25.886719 C 45.183594 25.199219 46.941406 24.855469 48.789062 24.855469 C 51.933594 24.855469 54.550781 25.613281 56.636719 27.132812 C 58.722656 28.644531 60.394531 30.695312 61.652344 33.285156 Z M 43.691406 43.257812 " fill-opacity="1" fill-rule="nonzero"/><path fill="#009245" d="M 87.15625 39.375 C 87.15625 41.230469 86.804688 42.957031 86.101562 44.566406 C 85.402344 46.171875 84.472656 47.566406 83.304688 48.75 C 82.136719 49.933594 80.78125 50.867188 79.230469 51.554688 C 77.675781 52.234375 76.050781 52.574219 74.351562 52.574219 C 73.015625 52.574219 71.722656 52.425781 70.46875 52.128906 C 69.210938 51.835938 67.992188 51.355469 66.808594 50.691406 L 66.808594 45.585938 C 67.695312 46.21875 68.761719 46.765625 70 47.226562 C 71.238281 47.691406 72.410156 47.921875 73.523438 47.921875 C 76.183594 47.921875 78.304688 47.089844 79.890625 45.425781 C 81.480469 43.757812 82.277344 41.542969 82.277344 38.773438 C 82.277344 37.441406 82.0625 36.210938 81.640625 35.082031 C 81.214844 33.957031 80.613281 32.976562 79.839844 32.144531 C 79.0625 31.316406 78.128906 30.667969 77.035156 30.203125 C 75.949219 29.742188 74.738281 29.507812 73.40625 29.507812 C 72.109375 29.507812 70.9375 29.761719 69.882812 30.261719 C 68.832031 30.761719 67.9375 31.472656 67.195312 32.394531 C 66.457031 33.316406 65.886719 34.4375 65.480469 35.753906 C 65.070312 37.0625 64.867188 38.515625 64.867188 40.105469 L 64.867188 63.996094 L 59.988281 63.996094 L 59.988281 39.265625 C 59.988281 37.238281 60.3125 35.34375 60.960938 33.585938 C 61.605469 31.828125 62.511719 30.304688 63.671875 29.015625 C 64.835938 27.722656 66.242188 26.707031 67.890625 25.96875 C 69.535156 25.226562 71.375 24.855469 73.40625 24.855469 C 75.515625 24.855469 77.414062 25.238281 79.113281 25.992188 C 80.8125 26.746094 82.261719 27.78125 83.464844 29.097656 C 84.667969 30.410156 85.582031 31.953125 86.210938 33.726562 C 86.839844 35.5 87.15625 37.382812 87.15625 39.375 Z M 87.15625 39.375 " fill-opacity="1" fill-rule="nonzero"/><path fill="#fbb03b" d="M 89.597656 13.207031 L 89.597656 27.734375 C 90.335938 26.886719 91.308594 26.195312 92.507812 25.660156 C 93.707031 25.125 95.03125 24.855469 96.476562 24.855469 C 100.242188 24.855469 103.011719 25.835938 104.785156 27.792969 C 106.558594 29.75 107.449219 32.597656 107.449219 36.328125 L 107.449219 52.023438 L 102.566406 52.023438 L 102.566406 36.328125 C 102.566406 34.222656 102.050781 32.558594 101.011719 31.339844 C 99.976562 30.121094 98.335938 29.507812 96.082031 29.507812 C 94.234375 29.507812 92.683594 30.191406 91.429688 31.558594 C 90.207031 32.964844 89.597656 34.578125 89.597656 36.386719 L 89.597656 52.023438 L 84.71875 52.023438 L 84.71875 13.207031 Z M 89.597656 13.207031 " fill-opacity="1" fill-rule="nonzero"/></svg>